<?xml version="1.0" standalone="no"?>
<!DOCTYPE svg PUBLIC "-//W3C//DTD SVG 20010904//EN"
 "http://www.w3.org/TR/2001/REC-SVG-20010904/DTD/svg10.dtd">
<svg version="1.0" xmlns="http://www.w3.org/2000/svg"
 width="640.000000pt" height="640.000000pt" viewBox="0 0 640.000000 640.000000"
 preserveAspectRatio="xMidYMid meet">
<metadata>
Created by potrace 1.14, written by Peter Selinger 2001-2017
</metadata>
<g transform="translate(0.000000,640.000000) scale(0.100000,-0.100000)"
fill="#000000" stroke="none">
<path d="M246 5455 c-56 -14 -88 -35 -122 -80 -55 -73 -53 -9 -50 -1380 1
-698 5 -1281 9 -1295 4 -14 10 -38 13 -55 3 -16 16 -63 30 -103 128 -382 472
-659 869 -698 116 -12 248 -5 329 17 23 6 46 12 51 13 87 17 237 90 343 168
255 188 413 501 414 822 0 161 -32 298 -110 466 -53 116 -180 266 -299 356
-66 50 -230 144 -251 144 -4 0 -28 7 -54 16 -25 8 -59 17 -74 20 -15 3 -31 7
-35 10 -14 8 -132 18 -214 18 -96 -1 -171 -9 -242 -28 -29 -8 -54 -13 -54 -13
-1 1 -3 322 -4 712 -1 391 -5 719 -8 730 -16 63 -76 127 -146 155 -43 17 -332
21 -395 5z m1112 -2058 c414 -145 521 -679 196 -976 -52 -48 -171 -115 -224
-127 -80 -18 -108 -21 -178 -19 -150 5 -291 71 -397 188 -173 189 -199 482
-63 696 81 129 228 232 364 257 16 3 30 7 33 10 2 2 47 2 100 0 70 -2 115 -10
169 -29z"/>
<path d="M2327 3878 c-47 -21 -71 -46 -94 -98 -14 -31 -16 -139 -16 -910 0
-861 1 -876 21 -915 49 -96 101 -118 287 -118 154 0 190 9 240 58 56 57 54 18
55 968 0 950 2 916 -53 975 -47 50 -71 56 -240 57 -134 1 -165 -2 -200 -17z"/>
<path d="M3870 3893 c-124 -11 -275 -55 -378 -109 -240 -127 -440 -382 -508
-651 -21 -82 -23 -110 -19 -236 4 -162 9 -201 36 -312 45 -180 116 -312 234
-431 175 -176 345 -264 605 -310 40 -7 213 -7 256 0 16 3 47 7 69 11 62 8 74
11 160 39 179 57 335 192 424 365 87 171 118 307 137 603 6 93 6 96 -17 110
-20 12 -103 15 -508 14 l-483 -1 -19 -24 c-16 -19 -19 -40 -19 -120 0 -145
-20 -135 272 -136 134 -1 249 -5 257 -9 23 -14 43 -78 42 -134 -1 -149 -138
-229 -406 -237 -269 -8 -453 109 -545 347 -44 113 -54 209 -33 320 25 141 116
266 240 331 82 43 102 48 216 53 128 5 194 -27 270 -129 48 -63 51 -64 365
-64 156 -1 292 1 302 4 9 3 22 15 28 28 9 19 3 37 -35 111 -77 152 -163 262
-286 372 -93 82 -294 170 -430 188 -50 6 -188 11 -227 7z"/>
<path d="M5144 3888 c-37 -9 -89 -59 -102 -98 -14 -39 -14 -1785 0 -1830 6
-19 22 -48 37 -63 57 -62 36 -60 616 -60 587 0 574 -1 615 65 16 26 18 52 18
176 0 162 -8 199 -54 229 -26 16 -57 18 -388 18 l-361 0 -3 168 -2 167 254 0
255 0 28 24 28 24 0 161 c0 223 26 205 -303 206 l-257 0 0 165 0 165 304 2
c283 1 306 3 330 21 40 29 47 69 46 240 -2 165 -8 192 -48 214 -26 14 -961 20
-1013 6z"/>
</g>
</svg>
